<mxfile host="Electron" modified="2023-05-29T12:59:55.860Z" agent="Mozilla/5.0 (Windows NT 10.0; Win64; x64) AppleWebKit/537.36 (KHTML, like Gecko) draw.io/21.2.8 Chrome/112.0.5615.165 Electron/24.2.0 Safari/537.36" etag="Ch5oSXoTOg2iVK3MwJfL" version="21.2.8" type="device">
  <diagram name="Pagina-1" id="AHyJ-n_UTIYTSlR7aWz2">
    <mxGraphModel dx="1036" dy="606" grid="1" gridSize="10" guides="1" tooltips="1" connect="1" arrows="1" fold="1" page="1" pageScale="1" pageWidth="827" pageHeight="1169" math="0" shadow="0">
      <root>
        <mxCell id="0" />
        <mxCell id="1" parent="0" />
        <mxCell id="UhH-cTjxuiBIAc_Ku1yG-2" value="1" style="ellipse;whiteSpace=wrap;html=1;aspect=fixed;fillColor=#647687;fontColor=#ffffff;strokeColor=#314354;" parent="1" vertex="1">
          <mxGeometry x="374" y="380" width="80" height="80" as="geometry" />
        </mxCell>
        <mxCell id="UhH-cTjxuiBIAc_Ku1yG-3" value="6" style="ellipse;whiteSpace=wrap;html=1;aspect=fixed;fillColor=#008a00;fontColor=#ffffff;strokeColor=#005700;" parent="1" vertex="1">
          <mxGeometry x="199" y="240" width="80" height="80" as="geometry" />
        </mxCell>
        <mxCell id="UhH-cTjxuiBIAc_Ku1yG-4" value="7" style="ellipse;whiteSpace=wrap;html=1;aspect=fixed;fillColor=#008a00;fontColor=#ffffff;strokeColor=#005700;" parent="1" vertex="1">
          <mxGeometry x="560" y="240" width="80" height="80" as="geometry" />
        </mxCell>
        <mxCell id="UhH-cTjxuiBIAc_Ku1yG-5" value="2" style="ellipse;whiteSpace=wrap;html=1;aspect=fixed;fillColor=#fa6800;fontColor=#000000;strokeColor=#C73500;" parent="1" vertex="1">
          <mxGeometry x="374" y="240" width="80" height="80" as="geometry" />
        </mxCell>
        <mxCell id="UhH-cTjxuiBIAc_Ku1yG-6" value="" style="endArrow=classic;html=1;rounded=0;exitX=0.5;exitY=0;exitDx=0;exitDy=0;entryX=0.5;entryY=1;entryDx=0;entryDy=0;" parent="1" source="UhH-cTjxuiBIAc_Ku1yG-2" target="UhH-cTjxuiBIAc_Ku1yG-5" edge="1">
          <mxGeometry width="50" height="50" relative="1" as="geometry">
            <mxPoint x="50" y="170" as="sourcePoint" />
            <mxPoint x="130" y="170" as="targetPoint" />
          </mxGeometry>
        </mxCell>
        <mxCell id="UhH-cTjxuiBIAc_Ku1yG-7" value="" style="endArrow=classic;html=1;rounded=0;exitX=0;exitY=0.5;exitDx=0;exitDy=0;entryX=1;entryY=0.5;entryDx=0;entryDy=0;" parent="1" source="UhH-cTjxuiBIAc_Ku1yG-5" target="UhH-cTjxuiBIAc_Ku1yG-3" edge="1">
          <mxGeometry width="50" height="50" relative="1" as="geometry">
            <mxPoint x="424" y="390" as="sourcePoint" />
            <mxPoint x="424" y="330" as="targetPoint" />
          </mxGeometry>
        </mxCell>
        <mxCell id="UhH-cTjxuiBIAc_Ku1yG-8" value="" style="endArrow=classic;html=1;rounded=0;exitX=1;exitY=0.5;exitDx=0;exitDy=0;entryX=0;entryY=0.5;entryDx=0;entryDy=0;" parent="1" source="UhH-cTjxuiBIAc_Ku1yG-5" target="UhH-cTjxuiBIAc_Ku1yG-4" edge="1">
          <mxGeometry width="50" height="50" relative="1" as="geometry">
            <mxPoint x="434" y="400" as="sourcePoint" />
            <mxPoint x="434" y="340" as="targetPoint" />
          </mxGeometry>
        </mxCell>
        <mxCell id="UhH-cTjxuiBIAc_Ku1yG-9" value="3" style="ellipse;whiteSpace=wrap;html=1;aspect=fixed;fillColor=#fa6800;fontColor=#000000;strokeColor=#C73500;" parent="1" vertex="1">
          <mxGeometry x="560" y="380" width="80" height="80" as="geometry" />
        </mxCell>
        <mxCell id="UhH-cTjxuiBIAc_Ku1yG-10" value="" style="endArrow=classic;html=1;rounded=0;exitX=1;exitY=0.5;exitDx=0;exitDy=0;entryX=0;entryY=0.5;entryDx=0;entryDy=0;" parent="1" source="UhH-cTjxuiBIAc_Ku1yG-2" target="UhH-cTjxuiBIAc_Ku1yG-9" edge="1">
          <mxGeometry width="50" height="50" relative="1" as="geometry">
            <mxPoint x="470" y="420" as="sourcePoint" />
            <mxPoint x="450" y="480" as="targetPoint" />
          </mxGeometry>
        </mxCell>
        <mxCell id="UhH-cTjxuiBIAc_Ku1yG-11" value="3" style="ellipse;whiteSpace=wrap;html=1;aspect=fixed;fillColor=#fa6800;fontColor=#000000;strokeColor=#C73500;" parent="1" vertex="1">
          <mxGeometry x="200" y="440" width="80" height="80" as="geometry" />
        </mxCell>
        <mxCell id="UhH-cTjxuiBIAc_Ku1yG-12" value="" style="endArrow=classic;html=1;rounded=0;exitX=0;exitY=0.5;exitDx=0;exitDy=0;entryX=1;entryY=0.5;entryDx=0;entryDy=0;" parent="1" source="UhH-cTjxuiBIAc_Ku1yG-2" target="UhH-cTjxuiBIAc_Ku1yG-11" edge="1">
          <mxGeometry width="50" height="50" relative="1" as="geometry">
            <mxPoint x="344" y="370" as="sourcePoint" />
            <mxPoint x="50" y="500" as="targetPoint" />
          </mxGeometry>
        </mxCell>
        <mxCell id="UhH-cTjxuiBIAc_Ku1yG-13" value="3" style="ellipse;whiteSpace=wrap;html=1;aspect=fixed;fillColor=#fa6800;fontColor=#000000;strokeColor=#C73500;" parent="1" vertex="1">
          <mxGeometry x="334" y="530" width="80" height="80" as="geometry" />
        </mxCell>
        <mxCell id="UhH-cTjxuiBIAc_Ku1yG-14" value="" style="endArrow=classic;html=1;rounded=0;exitX=0.5;exitY=1;exitDx=0;exitDy=0;entryX=0.729;entryY=0.065;entryDx=0;entryDy=0;entryPerimeter=0;" parent="1" source="UhH-cTjxuiBIAc_Ku1yG-2" target="UhH-cTjxuiBIAc_Ku1yG-13" edge="1">
          <mxGeometry width="50" height="50" relative="1" as="geometry">
            <mxPoint x="414" y="520" as="sourcePoint" />
            <mxPoint x="90" y="600" as="targetPoint" />
          </mxGeometry>
        </mxCell>
        <mxCell id="UhH-cTjxuiBIAc_Ku1yG-15" value="8" style="ellipse;whiteSpace=wrap;html=1;aspect=fixed;fillColor=#008a00;fontColor=#ffffff;strokeColor=#005700;" parent="1" vertex="1">
          <mxGeometry x="520" y="530" width="80" height="80" as="geometry" />
        </mxCell>
        <mxCell id="UhH-cTjxuiBIAc_Ku1yG-16" value="" style="endArrow=classic;html=1;rounded=0;exitX=1;exitY=0.5;exitDx=0;exitDy=0;entryX=0;entryY=0.5;entryDx=0;entryDy=0;" parent="1" source="UhH-cTjxuiBIAc_Ku1yG-13" target="UhH-cTjxuiBIAc_Ku1yG-15" edge="1">
          <mxGeometry width="50" height="50" relative="1" as="geometry">
            <mxPoint x="420" y="570" as="sourcePoint" />
            <mxPoint x="400" y="630" as="targetPoint" />
          </mxGeometry>
        </mxCell>
      </root>
    </mxGraphModel>
  </diagram>
</mxfile>
